# xmcd
#
# Track frame offsets: 
#        150
#        12727
#        43288
#        56283
#        88516
#        102330
#        116674
#        129597
#        142111
#        155766
#        168367
#        181001
#        198361
#        211519
#        228082
#
# Disc length: 3663 seconds
#
# Revision: 2
# Processed by: cddbd v1.5.2PL0 Copyright (c) Steve Scherf et al.
# Submitted via: ExactAudioCopyFreeDBPlugin 1.0
#
DISCID=c90e4d0f
DTITLE=Various Artist - Black and White Blues [CD 2)
DYEAR=1999
DGENRE=Blues
TTITLE0=Champion Jack Dupree - Gamblin Man Blues
TTITLE1=Rory Gallagher - Showbiz Blues
TTITLE2=Blind Boy Fuller and Sonny Terry - Blowing The Blues
TTITLE3=Snowy White - Looking For Somebody
TTITLE4=John Lee Hooker - Alberta
TTITLE5=Ken Hensley - Hellhound On My Trail
TTITLE6=Mitch Woods - Rocket 88
TTITLE7=Brownie McGhee - Step It Up And Go
TTITLE8=Torry Mc Phee - Drop Down Mama
TTITLE9=John Lee Williamson - Black Gal Blues
TTITLE10=Sonny Terry - Airplane Blues
TTITLE11=Savoy Brown - Sweet Loving Thing
TTITLE12=Bukka White - Special Streamline
TTITLE13=Alvin Lee - I Hear You Knockin
TTITLE14=Mick Taylor - You Shook Me
EXTD=Year: 1999   [CD 2 from 2)
EXTT0=
EXTT1=
EXTT2=
EXTT3=
EXTT4=
EXTT5=
EXTT6=
EXTT7=
EXTT8=
EXTT9=
EXTT10=
EXTT11=
EXTT12=
EXTT13=
EXTT14=
PLAYORDER=
